<?xml version="1.0" standalone="no"?>
<!DOCTYPE svg PUBLIC "-//W3C//DTD SVG 20010904//EN"
 "http://www.w3.org/TR/2001/REC-SVG-20010904/DTD/svg10.dtd">
<svg version="1.0" xmlns="http://www.w3.org/2000/svg"
 width="256.000000pt" height="256.000000pt" viewBox="0 0 256.000000 256.000000"
 preserveAspectRatio="xMidYMid meet">

<g transform="translate(0.000000,256.000000) scale(0.100000,-0.100000)"
fill="#000000" stroke="none">
<path d="M1131 2520 c-538 -68 -971 -473 -1078 -1007 -25 -127 -23 -357 5
-483 54 -250 164 -453 342 -630 223 -224 498 -346 820 -365 125 -8 282 11 415
50 451 132 794 520 877 994 6 36 11 129 11 206 -1 334 -120 629 -348 861 -185
188 -401 306 -657 358 -98 20 -290 28 -387 16z m382 -91 c443 -90 788 -417
904 -858 31 -118 43 -349 23 -469 -79 -494 -448 -878 -933 -973 -123 -24 -330
-26 -447 -3 -408 77 -760 382 -889 769 -51 155 -64 249 -58 430 4 131 10 177
31 254 108 387 394 693 764 815 177 59 419 73 605 35z"/>
<path d="M1236 2361 c-7 -11 18 -33 27 -24 4 3 7 12 7 20 0 15 -26 18 -34 4z"/>
<path d="M1340 2350 c0 -11 7 -20 15 -20 8 0 15 9 15 20 0 11 -7 20 -15 20 -8
0 -15 -9 -15 -20z"/>
<path d="M1137 2354 c-9 -10 2 -24 19 -24 8 0 14 7 14 15 0 15 -21 21 -33 9z"/>
<path d="M1440 2341 c0 -12 6 -21 16 -21 9 0 14 7 12 17 -5 25 -28 28 -28 4z"/>
<path d="M1040 2330 c0 -11 7 -20 15 -20 8 0 15 9 15 20 0 11 -7 20 -15 20 -8
0 -15 -9 -15 -20z"/>
<path d="M1541 2330 c-16 -9 -6 -30 15 -30 15 0 20 25 6 34 -4 2 -14 1 -21 -4z"/>
<path d="M940 2305 c0 -10 7 -15 18 -13 21 4 19 22 -2 26 -10 2 -16 -3 -16
-13z"/>
<path d="M1634 2299 c-10 -17 13 -36 27 -22 12 12 4 33 -11 33 -5 0 -12 -5
-16 -11z"/>
<path d="M845 2281 c-8 -15 3 -31 21 -31 9 0 14 7 12 17 -4 20 -24 28 -33 14z"/>
<path d="M1725 2261 c-8 -15 3 -31 21 -31 9 0 14 7 12 17 -4 20 -24 28 -33 14z"/>
<path d="M757 2234 c-9 -10 2 -24 19 -24 8 0 14 7 14 15 0 15 -21 21 -33 9z"/>
<path d="M1814 2209 c-10 -17 13 -36 27 -22 12 12 4 33 -11 33 -5 0 -12 -5
-16 -11z"/>
<path d="M670 2176 c0 -8 4 -17 9 -20 11 -7 33 18 24 27 -12 12 -33 7 -33 -7z"/>
<path d="M1897 2154 c-9 -10 2 -24 19 -24 8 0 14 7 14 15 0 15 -21 21 -33 9z"/>
<path d="M592 2114 c4 -21 22 -23 26 -1 2 10 -3 17 -13 17 -10 0 -15 -6 -13
-16z"/>
<path d="M1976 2091 c-7 -11 18 -33 27 -24 4 3 7 12 7 20 0 15 -26 18 -34 4z"/>
<path d="M514 2059 c-10 -17 13 -36 27 -22 12 12 4 33 -11 33 -5 0 -12 -5 -16
-11z"/>
<path d="M2052 2014 c4 -21 22 -23 26 -1 2 10 -3 17 -13 17 -10 0 -15 -6 -13
-16z"/>
<path d="M444 1979 c-7 -12 15 -31 28 -23 4 3 8 12 8 20 0 17 -26 19 -36 3z"/>
<path d="M2110 1935 c0 -8 9 -15 20 -15 11 0 20 7 20 15 0 8 -9 15 -20 15 -11
0 -20 -7 -20 -15z"/>
<path d="M387 1903 c-13 -12 -7 -23 13 -23 11 0 20 7 20 15 0 15 -21 21 -33 8z"/>
<path d="M2170 1856 c0 -8 4 -17 8 -20 13 -8 35 11 28 23 -10 16 -36 14 -36
-3z"/>
<path d="M337 1823 c-13 -12 -7 -33 8 -33 8 0 15 9 15 20 0 20 -11 26 -23 13z"/>
<path d="M2227 1783 c-4 -3 -7 -12 -7 -20 0 -15 26 -18 34 -4 7 11 -18 33 -27
24z"/>
<path d="M284 1729 c-10 -17 13 -36 27 -22 12 12 4 33 -11 33 -5 0 -12 -5 -16
-11z"/>
<path d="M2260 1676 c0 -8 4 -17 8 -20 13 -8 35 11 28 23 -10 16 -36 14 -36
-3z"/>
<path d="M251 1636 c-12 -14 -5 -26 16 -26 15 0 18 26 4 34 -5 3 -14 0 -20 -8z"/>
<path d="M967 1624 c-4 -4 -7 -115 -7 -246 0 -223 1 -239 18 -236 16 3 17 23
17 242 0 227 -4 263 -28 240z"/>
<path d="M1657 1624 c-4 -4 -7 -115 -7 -246 0 -223 1 -239 18 -236 16 3 17 23
17 242 0 227 -4 263 -28 240z"/>
<path d="M458 1604 c-5 -4 -8 -108 -8 -231 l0 -223 125 0 c136 0 167 8 223 55
99 83 101 246 5 337 -48 46 -98 60 -223 65 -63 3 -118 2 -122 -3z m264 -92
c47 -29 72 -77 72 -137 0 -62 -23 -106 -67 -134 -28 -17 -51 -21 -116 -21
l-81 0 0 161 0 162 80 -6 c55 -3 90 -11 112 -25z"/>
<path d="M1140 1381 l0 -231 125 0 c107 0 132 3 170 21 82 39 125 110 125 206
0 67 -24 125 -66 165 -50 47 -98 60 -231 66 l-123 5 0 -232z m225 148 c80 -22
119 -82 113 -171 -4 -52 -9 -63 -41 -96 -37 -37 -38 -37 -132 -40 l-95 -4 0
154 c0 85 3 158 7 161 10 11 104 8 148 -4z"/>
<path d="M1882 1593 c-51 -25 -72 -58 -72 -114 0 -65 32 -96 131 -128 87 -27
109 -44 109 -81 0 -68 -108 -75 -202 -14 l-38 24 -16 -32 c-16 -31 -16 -32 12
-55 33 -26 112 -53 158 -53 51 0 105 19 138 49 25 22 32 37 36 79 4 48 2 54
-29 85 -23 22 -58 42 -104 57 -38 12 -81 33 -94 46 -21 20 -23 26 -13 48 19
43 99 43 198 0 13 -6 39 50 30 64 -11 19 -99 42 -155 42 -31 0 -71 -8 -89 -17z"/>
<path d="M2294 1589 c-10 -17 13 -36 27 -22 12 12 4 33 -11 33 -5 0 -12 -5
-16 -11z"/>
<path d="M227 1543 c-13 -12 -7 -33 8 -33 8 0 15 9 15 20 0 20 -11 26 -23 13z"/>
<path d="M2320 1479 c0 -24 23 -21 28 4 2 10 -3 17 -12 17 -10 0 -16 -9 -16
-21z"/>
<path d="M204 1439 c-10 -17 13 -36 27 -22 12 12 4 33 -11 33 -5 0 -12 -5 -16
-11z"/>
<path d="M2332 1383 c4 -21 33 -25 33 -3 0 8 -8 16 -18 18 -14 3 -18 -1 -15
-15z"/>
<path d="M194 1339 c-10 -17 13 -36 27 -22 12 12 4 33 -11 33 -5 0 -12 -5 -16
-11z"/>
<path d="M2334 1289 c-3 -6 -2 -15 4 -21 13 -13 32 -2 32 18 0 16 -26 19 -36
3z"/>
<path d="M194 1239 c-10 -17 13 -36 27 -22 12 12 4 33 -11 33 -5 0 -12 -5 -16
-11z"/>
<path d="M2337 1194 c-14 -14 -7 -35 11 -32 9 2 17 10 17 17 0 16 -18 25 -28
15z"/>
<path d="M207 1144 c-14 -14 -7 -35 11 -32 9 2 17 10 17 17 0 16 -18 25 -28
15z"/>
<path d="M2320 1081 c0 -12 6 -21 16 -21 9 0 14 7 12 17 -5 25 -28 28 -28 4z"/>
<path d="M222 1033 c5 -25 28 -28 28 -4 0 12 -6 21 -16 21 -9 0 -14 -7 -12
-17z"/>
<path d="M2294 989 c-10 -17 13 -36 27 -22 12 12 4 33 -11 33 -5 0 -12 -5 -16
-11z"/>
<path d="M246 941 c-7 -11 18 -33 27 -24 4 3 7 12 7 20 0 15 -26 18 -34 4z"/>
<path d="M1170 860 c0 -47 4 -80 10 -80 6 0 10 33 10 80 0 47 -4 80 -10 80 -6
0 -10 -33 -10 -80z"/>
<path d="M1460 930 c0 -5 5 -10 10 -10 6 0 10 5 10 10 0 6 -4 10 -10 10 -5 0
-10 -4 -10 -10z"/>
<path d="M660 861 c0 -39 5 -73 10 -76 6 -4 10 22 10 69 0 44 -4 76 -10 76 -6
0 -10 -30 -10 -69z"/>
<path d="M710 920 c0 -5 9 -10 20 -10 16 0 19 -8 22 -62 2 -35 8 -63 13 -63 6
0 11 28 13 63 3 54 6 62 22 62 11 0 20 5 20 10 0 6 -25 10 -55 10 -30 0 -55
-4 -55 -10z"/>
<path d="M912 918 c-24 -24 -14 -49 28 -65 54 -22 54 -48 0 -40 -49 6 -60 -6
-19 -23 34 -14 75 -2 85 25 8 20 -20 51 -52 59 -13 4 -24 14 -24 22 0 13 7 15
36 11 25 -4 34 -2 31 6 -5 17 -69 21 -85 5z"/>
<path d="M1373 900 c-8 -12 -9 -21 -3 -25 6 -3 10 -23 10 -45 0 -37 19 -58 41
-44 14 8 11 24 -6 24 -10 0 -15 10 -15 30 0 20 5 30 15 30 8 0 15 5 15 10 0 6
-7 10 -15 10 -8 0 -15 7 -15 15 0 21 -13 19 -27 -5z"/>
<path d="M2263 894 c-7 -19 2 -28 22 -21 19 8 19 23 0 31 -9 3 -18 -1 -22 -10z"/>
<path d="M1052 893 c-24 -10 -34 -53 -18 -79 21 -31 52 -39 81 -20 60 40 5
126 -63 99z m56 -25 c30 -30 -11 -85 -44 -57 -25 21 -11 69 21 69 6 0 16 -5
23 -12z"/>
<path d="M1230 850 c0 -57 23 -80 60 -60 14 7 20 7 20 0 0 -5 5 -10 10 -10 6
0 10 27 10 60 0 68 -17 82 -22 18 -3 -38 -6 -43 -28 -43 -22 0 -25 5 -28 43
-4 59 -22 53 -22 -8z"/>
<path d="M1460 840 c0 -33 4 -60 10 -60 6 0 10 27 10 60 0 33 -4 60 -10 60 -6
0 -10 -27 -10 -60z"/>
<path d="M1532 884 c-31 -21 -30 -69 3 -90 46 -30 106 17 86 68 -15 39 -52 49
-89 22z m56 -16 c26 -26 2 -75 -31 -62 -22 8 -31 42 -17 59 15 18 32 19 48 3z"/>
<path d="M1652 843 c3 -62 21 -71 28 -16 4 27 11 39 24 41 24 5 36 -14 36 -55
0 -18 5 -33 10 -33 15 0 12 96 -2 108 -7 5 -32 9 -56 9 l-43 -2 3 -52z"/>
<path d="M1797 885 c-21 -20 -12 -43 19 -51 13 -3 24 -13 24 -21 0 -11 -7 -13
-30 -8 -36 8 -41 -10 -5 -19 32 -8 67 10 63 32 -2 9 -16 23 -31 30 -35 17 -36
36 -1 28 19 -5 25 -3 22 6 -7 19 -43 21 -61 3z"/>
<path d="M1890 860 c0 -5 5 -10 10 -10 6 0 10 5 10 10 0 6 -4 10 -10 10 -5 0
-10 -4 -10 -10z"/>
<path d="M284 849 c-10 -17 13 -36 27 -22 12 12 4 33 -11 33 -5 0 -12 -5 -16
-11z"/>
<path d="M1890 783 c0 -22 2 -25 10 -13 13 20 13 40 0 40 -5 0 -10 -12 -10
-27z"/>
<path d="M2220 796 c0 -8 4 -17 9 -20 11 -7 33 18 24 27 -12 12 -33 7 -33 -7z"/>
<path d="M332 753 c5 -25 28 -28 28 -4 0 12 -6 21 -16 21 -9 0 -14 -7 -12 -17z"/>
<path d="M2177 723 c-4 -3 -7 -12 -7 -20 0 -15 26 -18 34 -4 7 11 -18 33 -27
24z"/>
<path d="M382 668 c7 -19 38 -22 38 -4 0 10 -9 16 -21 16 -12 0 -19 -5 -17
-12z"/>
<path d="M2110 625 c0 -8 9 -15 20 -15 11 0 20 7 20 15 0 8 -9 15 -20 15 -11
0 -20 -7 -20 -15z"/>
<path d="M445 601 c-8 -15 3 -31 21 -31 9 0 14 7 12 17 -4 20 -24 28 -33 14z"/>
<path d="M2056 563 c-12 -12 -6 -33 9 -33 8 0 15 6 15 14 0 17 -14 28 -24 19z"/>
<path d="M512 513 c4 -21 33 -25 33 -3 0 8 -8 16 -18 18 -14 3 -18 -1 -15 -15z"/>
<path d="M1981 486 c-12 -14 -5 -26 16 -26 15 0 18 26 4 34 -5 3 -14 0 -20 -8z"/>
<path d="M590 445 c0 -8 7 -15 15 -15 8 0 15 7 15 15 0 8 -7 15 -15 15 -8 0
-15 -7 -15 -15z"/>
<path d="M1897 424 c-9 -10 2 -24 19 -24 8 0 14 7 14 15 0 15 -21 21 -33 9z"/>
<path d="M677 403 c-4 -3 -7 -12 -7 -20 0 -15 26 -18 34 -4 7 11 -18 33 -27
24z"/>
<path d="M1814 369 c-10 -17 13 -36 27 -22 12 12 4 33 -11 33 -5 0 -12 -5 -16
-11z"/>
<path d="M757 344 c-9 -10 2 -24 19 -24 8 0 14 7 14 15 0 15 -21 21 -33 9z"/>
<path d="M1724 319 c-8 -14 11 -33 25 -25 6 4 11 14 11 22 0 16 -26 19 -36 3z"/>
<path d="M844 299 c-8 -14 11 -33 25 -25 6 4 11 14 11 22 0 16 -26 19 -36 3z"/>
<path d="M1634 279 c-10 -17 13 -36 27 -22 12 12 4 33 -11 33 -5 0 -12 -5 -16
-11z"/>
<path d="M943 264 c-7 -19 2 -28 22 -21 19 8 19 23 0 31 -9 3 -18 -1 -22 -10z"/>
<path d="M1534 249 c-8 -14 11 -33 25 -25 6 4 11 14 11 22 0 16 -26 19 -36 3z"/>
<path d="M1042 233 c5 -25 28 -28 28 -4 0 12 -6 21 -16 21 -9 0 -14 -7 -12
-17z"/>
<path d="M1440 219 c0 -24 23 -21 28 4 2 10 -3 17 -12 17 -10 0 -16 -9 -16
-21z"/>
<path d="M1137 224 c-9 -10 2 -24 19 -24 8 0 14 7 14 15 0 15 -21 21 -33 9z"/>
<path d="M1241 216 c-12 -14 -5 -26 16 -26 15 0 18 26 4 34 -5 3 -14 0 -20 -8z"/>
<path d="M1340 210 c0 -11 7 -20 15 -20 8 0 15 9 15 20 0 11 -7 20 -15 20 -8
0 -15 -9 -15 -20z"/>
</g>
</svg>
